/* XPM */
static char *_469fbb83a5c461fb09d129f15ff47baTV1q25PMNZUcuMag[] = {
/* columns rows colors chars-per-pixel */
"64 64 188 2 ",
"   c #3C4C66",
".  c #3E4D6A",
"X  c #3C5066",
"o  c #3E516B",
"O  c #3F4C70",
"+  c #3F5571",
"@  c #434B65",
"#  c #424E6C",
"$  c #484D6D",
"%  c #405067",
"&  c #43526D",
"*  c #4A536D",
"=  c #44596C",
"-  c #4C596F",
";  c #50526C",
":  c #444E71",
">  c #494F72",
",  c #455371",
"<  c #4A5573",
"1  c #455973",
"2  c #4B5A75",
"3  c #4C5679",
"4  c #475E78",
"5  c #4D5C79",
"6  c #515773",
"7  c #515C77",
"8  c #595F77",
"9  c #525D7B",
"0  c #5B5F7B",
"q  c #4E627B",
"w  c #4E6A7D",
"e  c #53637D",
"r  c #5A657E",
"t  c #536A7E",
"y  c #5C6A7E",
"u  c #616176",
"i  c #606977",
"p  c #606C7E",
"a  c #535F80",
"s  c #4C6780",
"d  c #4F6881",
"f  c #566581",
"g  c #5A6683",
"h  c #556B83",
"j  c #5B6A84",
"k  c #5D6689",
"l  c #5C6C89",
"z  c #557184",
"x  c #5A7286",
"c  c #577489",
"v  c #5C738A",
"b  c #5D7A8C",
"n  c #5D7590",
"m  c #5F7E91",
"M  c #616783",
"N  c #616A85",
"B  c #61678B",
"V  c #616B8A",
"C  c #627187",
"Z  c #62758D",
"A  c #6A7788",
"S  c #627A8E",
"D  c #6A7A8C",
"F  c #657690",
"G  c #697792",
"H  c #647B92",
"J  c #6A7D95",
"K  c #6C7E99",
"L  c #707E98",
"P  c #658295",
"I  c #6A8296",
"U  c #668598",
"Y  c #6C849A",
"T  c #6C8A9D",
"R  c #778697",
"E  c #72859D",
"W  c #728A9E",
"Q  c #6B909E",
"!  c #6E8CA2",
"~  c #7486A0",
"^  c #7887A1",
"/  c #748CA2",
"(  c #798DA5",
")  c #7C8FA9",
"_  c #7692A5",
"`  c #7B92A6",
"'  c #7A99A7",
"]  c #7594A9",
"[  c #7C94AA",
"{  c #7D9AAD",
"}  c #7E9CB1",
"|  c #7EA1B4",
" . c #8192A6",
".. c #8294AC",
"X. c #829BAE",
"o. c #899BAE",
"O. c #8396B0",
"+. c #849CB2",
"@. c #8A9DB5",
"#. c #879DB8",
"$. c #8A9FB8",
"%. c #85A2B4",
"&. c #8AA2B6",
"*. c #88AAB6",
"=. c #86A3B9",
"-. c #8DA2B9",
";. c #8CA4BB",
":. c #86AABB",
">. c #8CA8BC",
",. c #8BAEBF",
"<. c #8EAEBE",
"1. c #8CAABC",
"2. c #90A3B7",
"3. c #92A4BD",
"4. c #90AEBF",
"5. c #91ABBE",
"6. c #9CAABB",
"7. c #8DB0BD",
"8. c #90B0BD",
"9. c #8DADC1",
"0. c #97AEC5",
"q. c #93ACC2",
"w. c #9BADC4",
"e. c #8DB1C2",
"r. c #92B3C3",
"t. c #94B3C3",
"y. c #9FB2C6",
"u. c #99B3C5",
"i. c #97BBC6",
"p. c #98B8C6",
"a. c #95B7C9",
"s. c #9AB4CA",
"d. c #9BB5CA",
"f. c #96BAC9",
"g. c #9CBACB",
"h. c #9FB6D0",
"j. c #9DBFD3",
"k. c #A0B1C6",
"l. c #A0B5C9",
"z. c #A1BFCD",
"x. c #A3BFD1",
"c. c #A4BDD3",
"v. c #A7BFD6",
"b. c #A2BCD1",
"n. c #AABFD2",
"m. c #ACBCD5",
"M. c #9FC3CF",
"N. c #9CC2D0",
"B. c #A6C3D5",
"V. c #A4C3D4",
"C. c #A9C1D7",
"Z. c #AAC3D6",
"A. c #A6CAD6",
"S. c #A8C8D6",
"D. c #ACC5DB",
"F. c #A5CBD8",
"G. c #ABCADC",
"H. c #B6C6DD",
"J. c #B3C8DC",
"K. c #B6CBDE",
"L. c #B2CCDD",
"P. c #B8CDDF",
"I. c #ADD2DE",
"U. c #AFCEE1",
"Y. c #B3CEE3",
"T. c #AFD4E3",
"R. c #B1D2E1",
"E. c #B3D6E3",
"W. c #B4D2E3",
"Q. c #B9D5E5",
"!. c #B5D9E6",
"~. c #B8DCE6",
"^. c #BAD5E9",
"/. c #B6DAE8",
"(. c #BDDCEA",
"). c #BFDEF0",
"_. c #BCE1EB",
"`. c #BDE4F0",
"'. c #C3D7EF",
"]. c #C2DBEE",
"[. c #C4DDF1",
"{. c #CBDDF3",
"}. c #C3E2EF",
"|. c #C4E5F2",
" X c #CAE4F6",
".X c #C6E9F5",
"XX c #CCE3F8",
"oX c #CAEAF9",
/* pixels */
"u @ ; $ * 8 M M i r y N A A R o.o.B.J.P.J.K.Z.-.n.l.o.o.I D C p y y r y y y y y y y y y y y y p y r r y y t l.k.r y 5 % - e i i ",
"0 $ $ $ # < 3 3 7 7 e h h h Z / ;.V.B.Z.Z.0.{ / ..[ E U v h h j j y y j y j y j j N y r y y N N g 6 M M h ] G.b.x h & o 1 1 2 6 ",
"r < < $ . : O O #   e x h h h b %.s.<.+.o.b q e q q e e q h f e e e r h j j j N h g l j l M e g 7 $ B g h ,.G.s.J J x l h 1 & & ",
"M e 5 & , + 5 3 5 e v Z v b P T <.R.r.h l , . & . & & . * 9 e < & - g N j j j r g g g g j e * e e & r l H 7.*.*.%.-.#.-.#.Z q e ",
"p g h e t e / #.@.z.0.+.%.V.R.R.!.M.' h l 1 . . # & : , 9 j N g g g g g M j N g N k 3 : & 2 e h j w t P X.7.Q S b D S _ 0.c.s.[ ",
"p j h x T I #.;.X.5.q.*.>.V.W..X.Xi.' c k 3 , O : * 3 7 k g l k N N g g j N N 9 9 3 : . & 5 h h x T &.8.S.7.P t t t t S / 1.t.5.",
"A J J W 1.;.;.] h h _ &.&.&.p.(.~.g.] n h 4 1 : , 5 l k B k g N g f g j g f f , # . 1 , 5 h v H Q *.}.}.oX*.T S U b x b b S ` d.",
"6.J.K.S.&.Y m l h h x S P S _ g.p.r.>.) n h h f f g k N N g N l 9 < , g 5 2 , $ . . h f f h { b.V.8..X.XoX5.&.8.J.%.o.%.*.z.!.^.",
"R +.X.+.%.H d l j h h h h h x U P Y [ q.[ J h h t l h r j e e f 5   . f 1 o   & = 4 h Y ] ` ^.[.Q.*.V.8.[ J U /  .W I ` r.~.|.].",
"D J I T / F g f f f 9 9 e e e l h j Y <.9.] U U J I J j j e = t q 2 4 e q 1 1 & v J T +.8.>.Q.b.5.` W P t q 9 f t e h P +.V.R.J.",
"@.$.+.T h e g 9 . : : < : < 5 g e f H =.,.e.f.7.s.g.&.W I I I Z b J v S S v v J ] ,.e.:.| 8.%.v   % @ & # & # 5 r & q h z { >.X.",
"C Z h 4 , & > > : : 9 a k f g g 3 : f U :.F.T.e.R.(.^.Q.P.Y.Z.*.g.Z.&.&.+.;.%.U.z.7.:.Q T 1.w o % % & # . # $ < j * 9 j v +.] v ",
"y j g 7 0 7 < # $ 9 g g k B a < : : 3 c H >.Z.W.%.' _ ' Q.}.~.r.a.g.5.W Y / >.j.a.>.T w c <.o X * e 9 r 9 e g a r g g N l G J j ",
"y h j N M N 0 3 3 7 9 r a 9 3 : : 3 a h z ] d.D.T t w t z.W.S.r.%.` [ x t H ] 9.e.,.c z Y >.4 2 5 e 9 g g N g N N N g g g r j r ",
"y h j r h N k k f 2 . . . # $ # , e k b d } 4.>.P y y t X.1.1.*._ h v t x h w :.9.9.c ! q.r.h l 5 . # 1 g j N g M g N j C l j j ",
"y h j l r 3 1 2 1 & . o o o 1 5 q h h c ] =.d.R.*.5.p.%.2.[ I U S e h j h Z ] 9.N./.=.=.q.0.x h f . . < l g g g N N g j j x h t ",
"y j h j g 5 2 2 1 + , 1 1 1 h Y J I I T >.%.X.p.+.-.0.X...K j t t l l g l ) 9.} 9.h.} { O.q.! l h 2 2 1 h j g j N g N j j j Z I ",
"S b F D Z l l l n d z n H n / >.%.o.@.%.%.W v x t j h j f j j C j h r F ~ #.#.d s c s d H +.+.! H n F v x N N g r g j l F n ] &.",
"@.&.-.$.O.F h H #.#.#.-.-.=.>.#.I x Z b v [ ` x x h h j j h h e j y g @.E l q + + O 1 4 l n H ( $.#.#.~ V h g 9 * & e U #.=.-.9.",
"R 3.[ J J h k n K K K K J J K F h h l t h Z E X.O.E h h h j h V h D ) E g 1 o O O . O 1 3 , k F L K K H h & 2 1 . & e v U +.} S ",
"( / J r g e f f j l l g f 9 9 9 9 9 5 9 f f F (  .^ Y E W I Y Y Y ( [ f , o . : + : : # : : 9 9 f k e e q 5 &   o o f c / +.| Y ",
" .h e j r * . 3 g g g 9 < # : # : : : : : 9 f f h E #.@.+.#.-.=.#.^ h + . , . 1 , : 3 > 3 $ < . 1 l & - * h q 1 2 , l ~ 0.=.%.#.",
"y x l j r < . 1 l g N g a 3 > : : : : : : : 3 f j x x S Z b v v h H h 1 . : . k g B a B 9 , g 3 < j e h h j h e h e ] ;.>.Y c v ",
"p h h h g 9 a f g l g B g g a 7 : 3 a 3 : O 3 f j t y y y e = - q l g f a 9 9 k 9 : 3 3 5 f e e 5 2 j H / [ S b ] { =.#.U n d 2 ",
"y j N j g M r k k k j l j j N g < 3 g g : : 1 g g g j r y q % % 2 j j g j g g k f 1 : . 3 j l j e - r L $.} I ] 9.} +.! k d 3 & ",
"y h h g j M 5 5 h j h k g j l a > $ 3 g , . < f h h j r y - X % 2 j h j h j V k k 9 1 . 5 g g g j h r h C m ( q.;.b c x f 5 # . ",
"t 2 * 7 M j g a < h j e 5 e j r * @ > , , # , f h h x y h t q q h j h j j j h 3 , 3 a a g k j N 7 * < 7 h j [ O.H , 2 q g < < 9 ",
"e &   * 7 5 a < 1 h j 5 & 2 7 3 & # # # # , e K R W W T X.` / T ] +.W x j h e e , : 9 9 9 a g k f # # 2 j 5 O.) h     2 j 9 9 j ",
"e - & * * & # # < 9 g e 2 1 & < 1 * 1 1 < 5 H O.+.@.+.+.Z.s.+.%.h.Y.q.I S D H h 2 1 < , . 1 5 g < # , 5 q w ] } b + 2 4 g k j j ",
"p t g g r * . : * . e g j e g e g h f f h g l Z Z l v j S Z x v ] u.q.-.>.>.&.v h h g 2 . 2 O , * o   , + =.9.;.-.h d d j c l h ",
"o. .L j g r r f e r ^ w.m.w.$...v h j j h j e = 1 9 j h j j j h v H S b _ 5.4.X.{ +.-.I d q q q h q h n ] e.9.b.^.} #.+.#.h.h.$.",
" .R G l r j k j h j L o.3.o.^ ) E ^ J h g l e & . 1 j l j j h f r h x h _ 8.<.A.i.<.9.] Y T =.] ! ! ! { t.:.] } 9.( / ( ) ;.%.^ ",
"y h g j j h k k j h l j l h h D @.q. .x x j q & X 3 N g g g N N j h j w W *.1._.I.7.*.*.7.f.!.N.,.,.:.=.9.9.! w h j C j j j h e ",
"j j j j M j k l g r l r r j h j Z F W @.+.Y e & & $ < < ; 0 g h g j h h b T *.i.F._._.!.~./.N.r.,.9.e.| b H h j l h j 3 1 1 4 j ",
"r 2 1 4 9 h k l g h l e q 9 5 5 g h H [ >...J & & # $ # $ < q 2 2 2 q T Q ] 7.e.N.G.|.|.`.F.e.' ! ! ] U h h r l j 2 9 < , # < 7 ",
"7 , , + & 5 9 f N j l e 2 & & < g l r S %.5.} q 1 1 , , , < 1 q t h w | 9.9.9.:.7.t.R.|.T.e.{ U z h h h h J D g g # & $ # $ : # ",
"$ O , . o & , 2 j j j l f 2   2 f j j P *.>.%.v f h f f g h F #.=.;.-.q.9.9.9.9.9.;.8.G.T.e.b h h j z x h 3.J g V . # $ : : $ # ",
"$ # O + &   # 2 j h h h h h t e j j I 7.!.!.(.Y.9.-.#.#.-.@.-.q.0.+.v Z n b c n v b 4.R.!.,.%.%.$.$.#.( h D v j e f f g g a 5 * ",
"6 . O , & o 2 e j t L R W ^ o.@.' W X.8._.|.).U.9.9.=.( / _ / ) / K v h e 2 4 q h t W e.N.e.9.[ W E ^ J h l j j l 5 9 g k l f 7 ",
"a 3 , 1 & * e V J J ` @.o.o.q.c.2.o.&.8.T./.G.a.+.+.! h q q e q q f g h e 1 . $ * t t | f.e.} Y h r h e j f k j g # # < g N g r ",
"M N k h h h g G 3.-.I x x Z x D C x T 8.8.7.i.<.! s + + + + o & , 2 j g N 0 # @ $ & t u.U.9.c h 9 & + 1 k g k j h # & 7 g N g g ",
"r k k k f h l F J I l e 2 % & = & e x P *.7.{ w + + + X   1 e e e f g < 9 r @ # < e h +.h.9.z x e . . 5 l k c k j e 9 g N j N j ",
"N l l c j h h h r j e 2 = & X & X e j S 1.+./ 4 O O O 3 2 s j l N g j 2 7 g < 6 r j j _ 9.9.h h e 1 1 1 s f f a g j j N j N g M ",
"r j h h t x g g j l 4 o % = # &   e j S =./ h . O O 3 k g k g g l g N g g N g g N e j ] t.q.c x N g g 3 , , , , , g j g j M j j ",
"G q.D.D.>.&.I j g k j g f g g e < g E O.H h f 1 O : 3 a B B N N N g N g N j g N j h j ] 9.9.l k 9 , , # O O o : : l g l M j N j ",
"C ) 0.a.T 1.[ ( ^ V j g g j j g q r E $.v l k 5 , O : a k B N g M j j N g N N N g j h ` q.q.c h f 5 # # O . , . : 3 g f 7 g g 7 ",
"r v _ %.U ] +.+.~ N e 9 e h t e e j H ] Y l h l , # , : a a 7 r r g g j g g g j j j h ] q.;.K c j h 2 $ O : 1 , 3 . 3 3 , a 9 # ",
"j S ` <.=.U h d 1 . * & # 7 7 * t j k H +./ b h 1 # : # : , # < 9 j j M j j N l j h c ] 9.9.9.Y w t j q . . a k f , , , : 9 5 # ",
"r t c P %.b j l g , O O O , : . < 7 j G >.q.) C f 3 o o o . & . & & o * e h h j k h } 9.r.9.9.=.9.-.-.9.$.3.G k v q h g h l 5 & ",
"y v T ' 1.S j h k a a a O   . : # * e v I +.>.[ ` H 4 5 5 q q 4 q e 4 4 g j j j U ] 9.] ! ! / T U Y ~ ~ Y E ^ [ ) 0.y.y.q.+.W G ",
"e S ] 1.&.D j l l l l a 1 # : : # # < t v / 4.1.q.` j j k l h h h l h j j h j e [ 0.9.Y z d q h x h f f t x  .5.0. X[. X].Z.>.3.",
"2.>.1.X.x j 3 : + O O , : : : . $ e h z z _ %.S +.q.-.1.#.9.;.>.>.>.3.-.-.X.V h 9 1 1 f q , & e l g j h x y t x x u.^. X]._ x x ",
"y.D.;.P t h e 3 , O # O . O . , 3 f z x W X.X.c U T / 1./ Y ! K ~ U F F F C 5 f 3 &   5 9 @ # < 3 3 2 < 2 = y t y W 8.D.z.W w w ",
"w.t./ z t h j f 1 . , , 1 5 1 s J P P T i.M.7.z w b T 1.m z h c h 2 o     & 2 g q 2 2 e g 7 < 6 * 2 < 2 - = t t t x X.5.s._ I P ",
"o.x c h t h h g f , # < 9 h d H +.9.8.z._..XZ.P z T 1.1.m z d h q o o & & 1 r N g r l h j l f h h r h f z e h h t z ' Z.}.g.*.&.",
"6.>.>.>.7.5.Y j j k ) 3.q.q.>.:.8.7.1.8.}.}.(.<.*.,.*.r.1.>.} x h h f h g j g N j h h h j l g k l h q.d.].6.H.{.{.5.5.{ b x Q 5.",
"@.! ~ Y E K Z k j j G E E E E Y Y Y Y ] b.Z.0.m U Y Y Y Y [ >._ I s z h h h h ` [ .. .G j k l l k g ~ ~ @.E  ...o.5.*.&._ P z U ",
"o.d k k 9 f g h j j l h e e e 9 e e e x ~ ( K 2 5 t j v j E X.1.] U P P U I H } O.'  .F e f a f k l 9 0 k 5 g e j ' X.X.1./ b z ",
"O.k l f # # 5 k k l j q & % & & & & . & . , & & & q e j h x P :.*.r.4.q.u.q.q.n h r j - # . , a l k < 5 k . . 2 j x x T r.q.] w ",
"@.d 4 # # $ , 3 h j j 5 &   2 e f h j k l V j h e e H &.x h b 1.! b ;.z h s k h C x C 2 & & : : < < # # , , f h y t t ' ^.r.1.;.",
"E j 4 # # # # < j j j e e 2 q j j g j g j g e j h j H [ ! U / ;.{ / 1.T m f f q e 3 t 2 < 1 3 5 $ # # # # 3 e l y I D &.Y.d.>.[ ",
"l j 3 # # $ # < l j j j h j l j j j j l g * 2 e j h x x +.9.9.<.=.0.>.q.~ e & # # * e j l g j N 9 & # # O k h l z 5.>.t.0.q.` j ",
"f g 4 , : $ * # & r j j j j j j j j j N g 3 $ & e j h h z h c z z z h j 5 # # # , , e j j g l j a # # # # g j U y.].` t h j h j ",
"h g f a 0 9 9 3 1 e j j j j j h j j j N B g e 9 g j h h h h h h h h j h f < < 7 9 9 j j j j g 9 6 # : # : l ~ o.5.{ S x t l g h "
};
