/* XPM */
static char *cea9cb71b8f54214c323b6d9d5804950OWVseTxfntAn1QdG[] = {
/* columns rows colors chars-per-pixel */
"16 16 6 1 ",
"  c #B47253",
". c #E08E67",
"X c white",
"o c #DFF6F5",
"O c #F4AC66",
"+ c #CB815E",
/* pixels */
"ooXXOOOO++++++++",
"oXXOOOO+++++++++",
"oXXOOOO+++++++++",
"oXXOOOO+++++++++",
"oXXOOOO+++++++++",
"oXXOOOO+++++++++",
"ooXXOOOO++++++++",
"ooXXOOOO++++++++",
"ooXXOOOO++++++++",
"oooXXOOOO++.++++",
"oooXXOOOO+++++++",
"oooXXOOOO++++.++",
"oooXXOOOO+++++++",
"oooXXOOOO++ ++++",
"ooXXOOOO++++++++",
"ooXXOOOO++++++++"
};
